<?xml version="1.0" encoding="utf-8"?>
<!-- Generator: Adobe Illustrator 27.6.1, SVG Export Plug-In . SVG Version: 6.00 Build 0)  -->
<svg version="1.1" id="Layer_1" xmlns="http://www.w3.org/2000/svg" xmlns:xlink="http://www.w3.org/1999/xlink" x="0px" y="0px"
	 viewBox="0 0 566.9 566.9" style="enable-background:new 0 0 566.9 566.9;" xml:space="preserve">
<style type="text/css">
	.st0{fill:#F7F7F7;}
</style>
<g>
	<g>
		<path class="st0" d="M171.6,233c0-14.9,0.1-29.7,0-44.6c-0.2-13.5,2.7-26.3,7.3-38.9c5.3-14.8,13.3-28,23.7-39.8
			c6.9-7.8,14.8-14.6,23.2-20.7c12.5-9.1,25.8-16.9,39.8-23.5c5.3-2.5,10.7-4.6,16.1-6.8c1.7-0.7,3.2-0.6,4.8,0
			c10.5,4,20.8,8.7,30.7,14.2c12.1,6.7,23.6,14.3,34.4,23.1c11.3,9.2,20.6,20.3,28.1,32.8c8.8,14.9,14.3,31,16.6,48.2
			c0.4,2.9,0.6,5.9,0.6,8.8c0,32.9,0,65.7,0,98.6c0,3.9,0,3.9-4,3.9c-2.2,0-4.5,0-6.7,0c-2.1,0-2.3-0.3-2.3-2.4c0-0.8,0-1.6,0-2.4
			c0-30.7-0.1-61.4,0-92.1c0.1-14-2.6-27.5-7.8-40.5c-6.5-16.4-16.4-30.5-29.6-42.2c-9.4-8.3-19.9-15.3-30.7-21.7
			c-9.3-5.4-18.9-10.1-28.8-14.2c-1.8-0.8-3.4-0.8-5.3,0c-20.7,8.4-39.7,19.6-57,33.7c-11,8.9-19.6,19.9-26.5,32.3
			c-5.9,10.7-9.8,22-12,34c-0.8,4.6-1.4,9.2-1.4,13.8c0,32.5,0,65.1,0,97.6c0,4.5,0,4.2-4.2,4.2c-2.2,0-4.5,0-6.7,0
			c-1.8-0.1-2-0.3-2.1-2.1c0-0.7,0-1.4,0-2.2C171.6,267,171.6,250,171.6,233z"/>
		<path class="st0" d="M317.6,359.4c-24.9,0-49.9,0-74.8,0c-4,0-4,0-4-3.9c0-16.7,0-33.4,0-50.1c0-3.7,0-3.7,3.7-3.7
			c2.4,0,4.8,0,7.2,0c1.8,0,2.1,0.3,2.2,2.1c0,0.8,0,1.6,0,2.4c0,12.3,0,24.6,0,36.9c0,3.2,0,3.2,3.2,3.2c1.5,0,3,0,4.6,0
			c1.1,0,1.6-0.5,1.6-1.6c0-0.7,0-1.4,0-2.2c0-12.2,0-24.3,0-36.5c0-0.5,0-1,0-1.4c0-2.8,0.1-2.9,3-3c2.5,0,5,0,7.4,0
			c2.4,0,2.6,0.2,2.6,2.6c0,5.4,0,10.9,0,16.3c0,3.6,0,3.6,3.5,3.6c15.8,0,31.7,0,47.5,0c3.7,0,3.7,0,3.7,3.7c0,5.3,0,10.6,0,15.8
			c0,2.5,0.2,2.6,2.5,2.6c1.4,0,2.7,0,4.1,0c2.7,0,2.8-0.1,2.8-2.9c0-5.2,0-10.4,0-15.6c0-3.6,0-3.6,3.5-3.6c2.4,0,4.8,0,7.2,0
			c2.1,0,2.3,0.3,2.4,2.4c0,5.1,0,10.2,0,15.4c0,0.5,0,1,0,1.4c0,2.9,0.1,2.9,3,3c1.4,0,2.7,0,4.1,0c1.7-0.1,2-0.3,2-2
			c0.1-2.5,0-5,0-7.4c0-3.4,0-6.9,0-10.3c0-2.1,0.3-2.3,2.4-2.4c2.9,0,5.8,0,8.6,0c2,0,2.3,0.3,2.3,2.4c0,4.9,0,9.8,0,14.6
			c0,1,0,1.9,0,2.9c0.1,1.9,0.3,2.1,2.1,2.2c1.6,0.1,3.2,0.1,4.8,0c1.9-0.1,2.2-0.3,2.2-2.3c0-4.2,0-8.5,0-12.7c0-1.7,0-3.4,0-5
			c0.1-1.8,0.4-2.1,2.2-2.1c3,0,6.1,0,9.1,0c1.7,0,1.9,0.3,2,2c0.1,0.6,0,1.3,0,1.9c0,9,0,18.1,0,27.1c0,0.3,0,0.6,0,1
			c0,3.1-0.2,3.2-3.3,3.2C368.2,359.4,342.9,359.4,317.6,359.4z M295.5,337.3c-6.2,0-12.5,0-18.7,0c-2.1,0-2.4,0.3-2.4,2.3
			c0,1.6-0.1,3.2,0,4.8c0.1,1.5,0.4,1.8,1.9,1.9c0.5,0,1,0,1.4,0c11.7,0,23.3,0,35,0c0.6,0,1.3,0,1.9,0c0.8,0,1.4-0.5,1.4-1.3
			c0-2.1,0-4.2,0-6.2c0-0.8-0.5-1.3-1.4-1.4c-0.6,0-1.3,0-1.9,0C307,337.3,301.3,337.3,295.5,337.3z"/>
		<path class="st0" d="M195.7,234.4c0-15.1,0.1-30.2,0-45.3c-0.1-9.1,1.6-17.8,4.2-26.4c4.1-13.5,10.8-25.6,19.8-36.4
			c5.6-6.8,12.3-12.6,19.4-17.8c11.9-8.8,24.5-16.3,37.9-22.5c2.4-1.1,4.8-2.1,7.2-3.2c1.2-0.6,2.4-0.6,3.7,0
			c18.3,7.7,35.3,17.7,50.8,30.2c14.8,12,25.4,27.1,31.9,45c3,8.3,4.9,16.9,5.7,25.7c0.1,1,0.1,2.1,0.1,3.1c0,32.6,0,65.3,0,97.9
			c0,4,0,4-4,3.9c-2.6,0-2.8-0.2-2.8-3c0-10.3,0-20.6,0-30.9c0-21.4-0.1-42.7,0-64.1c0.1-11.1-2.2-21.8-6-32.1
			c-5-13.3-12.8-24.9-22.9-34.8c-5.5-5.4-11.7-9.9-18-14.3c-10.7-7.4-22-13.7-33.9-19c-1.8-0.8-3.3-1-5.2-0.1
			c-17.8,8-34.3,17.9-49.1,30.6c-8.1,7-14.6,15.4-19.9,24.7c-5.5,9.8-9.1,20.2-11,31.3c-0.6,3.2-0.9,6.5-0.9,9.8
			c0,32.6,0,65.3,0,97.9c0,4,0,4-4,3.9c-2.6,0-2.8-0.2-2.8-2.9C195.7,268.4,195.7,251.4,195.7,234.4z"/>
		<path class="st0" d="M284.3,381.5c-36.2,0-72.4,0-108.7,0c-4,0-4,0-4-3.9c0-2.2,0-4.3,0-6.5c0-2.5,0.2-2.7,2.8-2.7
			c0.6,0,1.1,0,1.7,0c72,0,144.1,0,216.1,0c1,0,1.9,0,2.9,0.1c0.9,0,1.5,0.6,1.5,1.5c0,3.4,0,6.7,0,10.1c0,0.9-0.6,1.4-1.6,1.4
			c-0.9,0-1.8,0-2.6,0C356.4,381.5,320.3,381.5,284.3,381.5z"/>
		<path class="st0" d="M171.6,330.5c0-8.2,0-16.5,0-24.7c0-0.5,0-1,0-1.4c0.1-2.5,0.2-2.7,2.8-2.7c17.4,0,34.8,0,52.3,0
			c2.6,0,2.8,0.2,2.8,2.7c0,17.4,0,34.8,0,52.3c0,2.5-0.2,2.7-2.7,2.7c-10,0-20,0-30,0c-2.7,0-2.9-0.2-2.9-2.9c0-12.5,0-25.1,0-37.6
			c0-4.5,0.1-4.1-4.2-4.1c-1.1,0-2.2,0-3.4,0c-1,0-1.5,0.5-1.5,1.5c0,0.7,0,1.4,0,2.2c0,12.5,0,24.9,0,37.4c0,3.5,0,3.5-3.6,3.6
			c-2.2,0-4.5,0-6.7,0c-2.5,0-2.7-0.2-2.7-2.8C171.6,348,171.6,339.3,171.6,330.5z M216.3,330.6c0-0.6,0-1.1,0-1.7
			c0-3.8,0-7.7,0-11.5c0-2.5-0.2-2.6-2.5-2.7c-1.3,0-2.6,0-3.8,0c-2.5,0-2.7,0.2-2.7,2.8c0,6.9,0,13.9,0,20.8c0,1.9,0,3.8,0,5.8
			c0.1,1.8,0.3,2.1,2.1,2.2c1.5,0.1,3,0,4.6,0c2.2,0,2.4-0.2,2.4-2.5C216.3,339.4,216.3,335,216.3,330.6z"/>
		<path class="st0" d="M359.9,234.6c0,16.5,0,33.1,0,49.6c0,0.7,0,1.4,0,2.2c-0.1,1.5-0.5,2-1.8,2c-1.2,0-1.6-0.4-1.7-2.1
			c0-0.8,0-1.6,0-2.4c0-31.3-0.1-62.5,0-93.8c0.1-11.1-2.5-21.5-7-31.6c-4.4-10.1-10.7-18.9-18.7-26.5c-3.9-3.8-8.3-7-12.7-10.2
			c-9.4-6.8-19.4-12.6-29.9-17.7c-1.6-0.8-2.9-0.8-4.5,0c-13.3,6.3-25.8,13.9-37.2,23.1c-17,13.7-27.2,31.3-30.6,52.9
			c-0.4,2.6-0.5,5.3-0.5,7.9c0,31.9,0,63.8,0,95.7c0,1,0,1.9-0.1,2.9c-0.1,1.2-0.7,1.7-1.9,1.7c-1.3,0-1.7-0.3-1.8-1.7
			c-0.1-0.6,0-1.3,0-1.9c0-32.5-0.1-64.9,0-97.4c0-8.5,2.1-16.6,5-24.6c5.1-14,13.4-26,24.6-35.8c7.3-6.4,15.3-11.8,23.7-16.7
			c6.1-3.7,12.3-7.1,18.8-10c1.6-0.7,2.9-0.7,4.5,0.1c14.2,6.7,27.5,14.7,39.7,24.5c17.6,14.2,28,32.7,31.6,55
			c0.4,2.5,0.5,5.1,0.5,7.6C359.9,203.3,359.9,218.9,359.9,234.6z"/>
		<path class="st0" d="M340.2,314.8c-17.5,0-35,0-52.5,0c-3.7,0-3.7,0-3.7-3.7c0-2.3,0-4.6,0-7c0-2.2,0.2-2.4,2.5-2.5
			c0.5,0,1,0,1.4,0c34.9,0,69.9,0,104.8,0c3.7,0,4.1-0.6,4,4.1c0,2.2,0,4.5,0,6.7c-0.1,1.9-0.4,2.2-2.3,2.3c-0.7,0-1.4,0-2.2,0
			C374.9,314.8,357.5,314.8,340.2,314.8z"/>
		<path class="st0" d="M226.5,235.6c0,16.4,0,32.8,0,49.2c0,0.8,0,1.6-0.1,2.4c0,0.5-0.3,0.9-0.9,0.9c-0.6,0-0.9-0.4-0.9-0.9
			c-0.1-0.9-0.1-1.8-0.1-2.6c0-25,0-50.1,0-75.1c0-6.5,0.1-13,0-19.4c-0.2-9.7,2.2-18.9,6.1-27.6c5.3-11.9,13.3-21.6,23.6-29.4
			c9.2-7,18.9-13.1,29.2-18.4c1.6-0.9,3-0.9,4.7-0.1c12,6.1,23.4,13.2,33.7,21.9c12.6,10.8,20.6,24.5,24.2,40.7
			c1,4.5,1.4,9,1.4,13.6c0,31.1,0,62.2,0,93.3c0,1-0.1,2.1-0.2,3.1c-0.1,0.5-0.4,0.9-1,0.9c-0.6,0-0.8-0.5-0.8-1
			c-0.1-0.9-0.1-1.8-0.1-2.6c0-31.4,0-62.8,0-94.3c0-11.5-3.2-22.1-8.6-32.1c-3-5.7-6.9-10.8-11.3-15.5c-3.5-3.7-7.5-6.8-11.5-9.8
			c-8.2-6.1-16.8-11.3-25.8-16.1c-1.6-0.8-2.8-0.9-4.5,0c-11.8,6.1-23.1,13.2-33.2,21.9c-9.3,8-15.8,17.9-20,29.4
			c-2.8,7.6-4.1,15.4-4.1,23.5C226.6,206.2,226.5,220.9,226.5,235.6z"/>
		<path class="st0" d="M499.5,425.8c1.8,0.3,3.4,0.2,4.9,0.1c1.5-0.2,2-0.8,2.1-2.4c0.1-1.3,0-2.6,0.1-3.8c0.1-2.9,1.1-5.4,3.9-6.6
			c3.1-1.3,6.1-1.1,8.9,0.8c1.1,0.8,1.6,1.9,2,3.2c0.8,2.8,0.7,5.7-0.1,8.5c-0.6,2-1.9,3.3-3.9,3.9c-2.6,0.8-5.2,0.7-7.7-0.6
			c-1-0.5-1.8-0.7-2.9-0.2c-1.3,0.6-2.8,0.8-4.2,0.8c-20,0-40,0-60,0c-1,0-2.2,0.1-3-0.4c-1.8-1.3-3.5-1-5.4-0.5
			c-0.7,0.2-1.6,0.1-2.4,0.1c-4.1-0.1-6.5-2.3-6.8-6.5c-0.1-0.9-0.1-1.8,0-2.6c0.3-3.5,2.2-5.8,5.5-6.8c2.4-0.7,4.9-0.8,7.3-0.2
			c1.7,0.4,2,0.7,2,2.4c0.1,2.6,0,5.3,0,7.9c0,2.7,0.4,3.1,3,3.1c14.2,0,28.5,0,42.7,0c1.9,0,2-0.1,1.3-1.9
			c-0.7-1.9-1.5-3.9-2.2-5.8c-0.9-2.5-0.5-3.5,1.8-4.7c3.2-1.6,6.6-2,10-0.9c2.9,0.9,4.3,2.8,4.4,5.9
			C501.2,421.2,501,422.2,499.5,425.8z M510.1,421.3C510.1,421.3,510.1,421.3,510.1,421.3c0,0.6-0.1,1.3,0,1.9
			c0.2,2.2,1.1,3.1,3.3,3.3c0.6,0.1,1.3,0,1.9,0c1.4-0.1,2.4-0.8,2.8-2.2c0.7-2.2,0.6-4.4-0.1-6.6c-0.4-1.1-1.1-1.7-2.2-2
			c-3.1-0.9-5.4,0.7-5.7,3.9C510,420.2,510.1,420.7,510.1,421.3z M492.5,415.2c-0.1,0-0.5,0-0.8,0.1c-0.6,0.1-1.3,0.2-1.9,0.4
			c-1.7,0.5-2,1.1-1.4,2.8c0.7,1.9,1.4,3.7,2.2,5.6c0.7,1.9,1.8,2.3,3.8,1.6c2.3-0.8,3.9-4,3.4-6.7
			C497.3,416.5,495.6,415.2,492.5,415.2z M436.5,420.2C436.5,420.2,436.4,420.2,436.5,420.2c0-1,0-2.1,0-3.1c0-0.7-0.2-1.4-0.9-1.5
			c-1.9-0.3-3.8-0.5-5.5,0.8c-1.6,1.2-2.1,4.7-1.1,6.9c0.7,1.6,2.6,2.4,4.9,2.1c1.8-0.3,2.5-1,2.6-2.8
			C436.5,421.8,436.5,421,436.5,420.2z"/>
		<path class="st0" d="M231.4,429.4c-5.6,0-11.2,0-16.8,0c-0.4,0-0.8,0-1.2,0c-5.1,0-6.2-1.2-6.2-6.2c0-6.1,0-12.1,0-18.2
			c0-0.7,0-1.4,0.1-2.2c0.1-0.8,0.7-1.2,1.5-1.2c0.9,0,1.6,0.3,1.7,1.3c0.1,0.7,0.1,1.4,0.1,2.1c0,5.8,0,11.5,0,17.3
			c0,0.6,0,1.3,0.1,1.9c0.1,0.8,0.5,1.4,1.3,1.6c1.7,0.4,3.5,0.3,5.2,0.1c0.5-0.1,0.8-0.5,0.8-1c0-0.6,0.1-1.3,0.1-1.9
			c0-5.9,0-11.8,0-17.7c0-0.7,0-1.4,0.1-2.2c0.1-0.8,0.6-1.3,1.4-1.3c0.9-0.1,1.6,0.2,1.8,1.1c0.1,0.6,0.2,1.3,0.2,1.9
			c0,2.2,0,4.5,0,6.7c0,2.3,0,2.3,2.2,1.7c2.7-0.7,5.4-1.3,8.3-0.7c4.4,0.9,6.9,3.4,7.2,8c0.1,1.3,0,2.6,0,3.8c0,1.6,0,1.7,1.5,1.7
			c3.3,0,6.6,0.1,9.8,0c2,0,2.4-0.5,2.5-2.7c0-1.8,0-3.5,0-5.3c0-0.6,0.1-1.3,0.7-1.7c1.1-0.8,2.5-0.2,2.6,1.3
			c0.1,1.3,0.1,2.7,0.1,4.1c0,0.9,0,1.8,0.1,2.6c0,0.9,0.6,1.5,1.5,1.6c0.6,0.1,1.3,0.1,1.9,0.1c1.7-0.1,2.1-0.5,2.2-2.2
			c0.1-1.9,0-3.8,0-5.8c0-0.6,0-1.1,0-1.7c0-1.1,0.6-1.6,1.7-1.6c1,0,1.6,0.6,1.7,1.7c0,0.7,0,1.4,0.1,2.2c0,1.8,0,3.5,0,5.3
			c0.1,1.5,0.5,2,2,2.1c0.6,0.1,1.1,0.1,1.7,0c1.5-0.1,1.8-0.4,1.9-1.9c0.1-2.4,0-4.8,0-7.2c0-0.6,0-1.3,0-1.9
			c0.1-1,0.6-1.4,1.5-1.4c0.9,0,1.5,0.4,1.7,1.3c0.1,0.4,0.1,0.8,0.1,1.2c0,3.1,0.1,6.2,0,9.4c-0.1,3.1-0.7,3.7-3.8,4
			c-1.8,0.2-3.5,0-5.2-0.5c-1-0.3-2-0.3-3,0.1c-2,0.7-4.1,0.7-6.1,0c-0.9-0.3-1.8-0.4-2.8-0.1c-1.6,0.5-3.3,0.6-5,0.6
			C243,429.4,237.2,429.4,231.4,429.4z M228.6,425.9C228.6,425.9,228.6,425.9,228.6,425.9c1.7,0,3.3,0,5,0c0.2,0,0.3,0,0.5,0
			c1.1,0,1.8-0.5,1.8-1.7c0.1-1.4,0.1-2.7-0.1-4c-0.5-2.6-1.8-4-4.3-4.4c-2.8-0.5-5.5-0.1-8.2,0.8c-1,0.3-1.6,1-1.6,2.1
			c0,1.8-0.1,3.7,0,5.5c0.1,1.5,0.3,1.7,1.9,1.8C225.3,426,226.9,425.9,228.6,425.9z"/>
		<path class="st0" d="M311.6,429.4c-5.3,0-10.6,0-15.8,0c-2.9,0-3,0-3,2.9c0,5-4,5.8-7.2,5.4c-0.9-0.1-1.5-0.6-1.5-1.6
			c0-1,0.6-1.3,1.5-1.5c3.7-0.6,3.7-0.6,3.8-4.5c0-4.2,0-8.3,0-12.5c0-0.6,0-1.3,0.1-1.9c0.1-1,0.7-1.3,1.7-1.3
			c0.9,0,1.6,0.4,1.6,1.4c0.1,1,0.1,2.1,0.1,3.1c0,1.8,0,3.5,0,5.3c0,1.2,0.6,1.7,1.8,1.7c11.4,0,22.9,0,34.3,0
			c1.7,0,2.2-0.6,2.3-2.4c0.1-2.2,0-4.5,0.1-6.7c0-0.8,0-1.6,0.8-2.1c1.2-0.7,2.7,0,2.8,1.5c0.1,2,0.1,4,0.1,6c0,0.6,0,1.3,0,1.9
			c0,1.2,0.7,1.7,1.8,1.9c0.6,0.1,1.3,0.1,1.9,0.1c7.4,0,14.9,0,22.3,0c0.6,0,1.3,0,1.9-0.1c1.4-0.2,2-0.8,2.1-2.2
			c0.1-1.4,0.1-2.7,0.1-4.1c0-2.8,0.9-5.1,3.5-6.4c2.9-1.5,5.9-1.4,8.7,0.3c1.7,1.1,2.7,2.8,2.8,4.8c0.1,1.9,0.1,3.8,0,5.7
			c-0.2,3-1.9,4.8-4.8,5.5c-2.5,0.6-5,0.4-7.2-0.7c-1-0.5-1.9-0.6-2.9-0.1c-1.2,0.6-2.6,0.7-4,0.7c-7.6,0-15.2,0.3-22.8-0.1
			c-3.9-0.2-7.7-0.1-11.6,0.1C321.7,429.6,316.6,429.4,311.6,429.4z M368.5,421.2C368.5,421.2,368.5,421.2,368.5,421.2
			c0,0.7,0,1.4,0,2.2c0.2,2.1,1.1,3,3.2,3.1c0.6,0,1.3,0,1.9,0c1.7-0.2,2.6-0.9,2.9-2.6c0.3-1.7,0.3-3.5,0-5.2
			c-0.2-1.4-1-2.6-2.5-2.9c-3.7-0.7-5.5,1.2-5.5,3.9C368.5,420.1,368.5,420.7,368.5,421.2z"/>
		<path class="st0" d="M335.4,288.2c-0.8-1.5-0.6-2.6-0.6-3.7c0-31.1-0.1-62.2,0-93.3c0-11.6-3.3-22-9.4-31.7
			c-4.1-6.5-9.3-12-15.4-16.6c-7.1-5.3-14.4-10.1-22.1-14.4c-1.6-0.9-2.8-0.8-4.2,0.1c-8.9,5-17.6,10.5-25.4,17.2
			c-11.1,9.5-18,21.7-20.7,36.1c-0.4,2.3-0.5,4.6-0.5,6.9c0,31.9,0,63.8,0,95.7c0,0.9,0,1.8-0.1,2.6c0,0.3-0.1,0.7-0.5,0.7
			c-0.5,0.1-0.7-0.4-0.7-0.8c-0.1-0.9-0.1-1.8-0.1-2.6c0-12.8,0-25.6,0-38.4c0-18.2,0-36.5,0-54.7c0-9.9,2.4-19.1,7-27.9
			c4.3-8.2,10.2-15.1,17.5-20.7c7.3-5.7,15.1-10.7,23.2-15.3c1.9-1.1,3.4-1,5.3,0.1c8.8,4.9,17.3,10.4,25.1,16.8
			c10.2,8.4,16.9,19,20.5,31.7c1.3,4.6,1.9,9.4,1.9,14.2c-0.1,31.4,0,62.8,0,94.3C335.9,285.6,336.1,286.8,335.4,288.2z"/>
		<path class="st0" d="M61.8,425.9c2.4,0,4.3,0,6.3,0c1.1,0,1.6-0.6,1.7-1.6c0.1-0.7,0.1-1.4,0.1-2.2c0-5.8,0-11.5,0-17.3
			c0-0.6,0-1.3,0.1-1.9c0.1-0.8,0.6-1.3,1.4-1.3c0.9-0.1,1.6,0.2,1.8,1.1c0.1,0.5,0.2,1.1,0.2,1.7c0,6.9,0,13.9,0,20.8
			c0,0.4,0,0.8-0.1,1.2c-0.2,1.8-0.7,2.3-2.5,2.7c-1.3,0.3-2.5,0.3-3.8,0.3c-7.2,0-14.4,0-21.6,0c-0.6,0-1.3,0-1.9,0
			c-1.2,0-1.8,0.5-1.8,1.7c0,0.9-0.1,1.8-0.3,2.6c-0.7,3.2-4.5,5.1-7.6,3.8c-0.7-0.3-0.9-0.8-0.9-1.5c0-0.6,0.3-1.1,0.9-1.2
			c0.5-0.1,1.1-0.1,1.7-0.2c1.9-0.3,2.5-0.9,2.6-2.8c0.1-1,0-2.1,0-3.1c0-4.1,0-8.1,0-12.2c0-1,0.1-2,1.4-2.1
			c1.3-0.1,1.9,0.3,1.9,1.8c0.1,1.9,0.1,3.8,0,5.7c0,4.2-0.1,4,3.9,3.9c4.7,0,5.1,0.8,3-4.3c-0.5-1.3-1.1-2.7-1.5-4
			c-0.5-1.8-0.1-2.9,1.5-3.8c3.6-1.9,7.5-2.4,11.3-0.8c2.6,1.1,3.6,3.3,3.8,5.9C64,421.3,63.2,423.4,61.8,425.9z M54.9,415.2
			c-0.7,0.1-1.8,0.3-2.9,0.6c-1.4,0.4-1.6,0.9-1.1,2.3c0.7,1.9,1.4,3.9,2.2,5.8c0.9,2.1,2.3,2.6,4.3,1.6c2.2-1,3.5-4.3,2.8-7
			C59.7,416.4,58,415.2,54.9,415.2z"/>
		<path class="st0" d="M120,429.4c-2.8-0.1-6.8,0.5-10.6-0.8c-0.3-0.1-0.7-0.1-0.9,0c-3.4,1.2-7,0.7-10.5,0.8c-2.8,0.1-5.6,0-8.4,0
			c-0.7,0-1.5,0-2-0.7c-0.9-1.1-0.2-2.7,1.3-2.7c2.2-0.1,4.3,0,6.5-0.1c2.2,0,2.4-0.2,2.4-2.5c0-1,0-2.1-0.1-3.1
			c-0.3-2.9-1.9-4.5-4.8-4.8c-1-0.1-2.1-0.1-3.1-0.1c-0.9,0-1.6-0.3-1.7-1.3c-0.1-0.9,0.4-1.4,1.3-1.7c5.4-1.8,11.1,1.8,11.7,7.4
			c0.1,1.2,0.1,2.4,0.1,3.6c0.1,2.4,0.2,2.5,2.7,2.5c0.2,0,0.5,0,0.7,0c2.2-0.1,2.7-0.5,2.7-2.7c0-2.2,0-4.5,0-6.7c0-0.8,0-1.6,1-2
			c1.3-0.5,2.4,0.2,2.4,1.7c0.1,2.2,0,4.5,0.1,6.7c0,2.5,0.4,2.9,2.9,3c0.1,0,0.2,0,0.2,0c1.1-0.1,2.5,0.5,3.2-0.3
			c0.8-0.8-0.3-1.9-0.4-2.9c0-1-0.3-1.9-0.3-2.9c0.2-4.2,2.4-6.6,6.5-7.4c1.8-0.4,3.6-0.4,5.5,0c0.9,0.2,1.4,0.7,1.3,1.7
			c-0.1,1-0.8,1.3-1.6,1.3c-1.2,0-2.4,0-3.6,0.1c-3.1,0.2-4.8,2.1-4.6,5.2c0,1,0.3,2.1,0.7,3c0.6,1.3,1.6,2.2,3.2,2.1
			c1.7,0,3.4,0,5,0c1.3,0.1,1.8,0.6,1.8,1.7c0,1.1-0.5,1.7-1.9,1.7C126.3,429.5,123.7,429.4,120,429.4z"/>
		<path class="st0" d="M527.2,414.5c0-3.6,0-7.2,0-10.8c0-1,0.2-2,1.4-2.1c1-0.1,1.8,0.2,1.9,1.3c0.1,0.7,0.1,1.4,0.1,2.2
			c0,5.8,0,11.7,0,17.5c0,2.9,0.4,3.3,3.3,3.4c4.7,0,9.4,0,14.1,0c1.9,0,2-0.2,1.4-1.9c-0.5-1.3-1.1-2.5-1.7-3.7
			c-1.5-3.1-4.1-4.6-7.5-4.7c-0.8,0-1.6,0-2.4,0c-0.8,0-1.5,0-1.6-1c-0.1-1,0.3-1.8,1.3-1.9c2.1-0.3,4.3-0.4,6.4,0.1
			c2.8,0.7,4.8,2.4,6.3,4.8c1.5,2.5,2.5,5.2,3.4,7.9c0.2,0.5,0.3,1.1,0.3,1.6c0,1.5-0.4,2.1-1.9,2.2c-1.2,0.1-2.4,0-3.6,0
			c-4.9,0-9.7,0-14.6,0c-0.4,0-0.8,0-1.2,0c-4.4-0.1-5.6-1.3-5.6-5.8C527.2,420.6,527.2,417.6,527.2,414.5
			C527.2,414.5,527.2,414.5,527.2,414.5z"/>
		<path class="st0" d="M156.9,423.2c0-1.8,0-3.7,0-5.5c0-0.6,0-1.1,0.1-1.7c0.1-1,0.6-1.6,1.7-1.6c1.1,0,1.6,0.6,1.6,1.6
			c0,1.3,0,2.6,0,3.8c0,1.1,0,2.2,0,3.4c0,2.6,0.1,2.7,2.7,2.7c4.3,0.1,4.3,0.1,4.3-4.3c0-1.8-0.1-3.7,0-5.5c0-1.4,0.6-1.9,1.6-1.9
			c1.1,0,1.7,0.5,1.8,1.8c0.1,3.6,0.1,7.2,0,10.8c0,1.6-0.5,1.9-2.2,2.3c-1.9,0.4-3.8,0.3-5.7,0.3c-2.3,0.1-2.4,0.2-2.5,2.4
			c0,0.5,0,1,0,1.4c0,1-0.5,1.6-1.6,1.8c-3.7,0.8-7.5,0.8-11.1-0.5c-2.6-0.9-4.2-2.9-5-5.4c-0.9-2.9-0.8-5.8-0.2-8.8
			c0.2-1.2,1-1.7,2.1-1.5c1.1,0.2,1.1,1,1,1.9c-0.1,2-0.2,4,0.2,6c0.5,2.7,2.1,4.4,4.8,5c1.3,0.3,2.5,0.5,3.8,0.4
			c2.2-0.1,2.5-0.3,2.6-2.5C156.9,427.5,156.9,425.4,156.9,423.2C156.9,423.2,156.9,423.2,156.9,423.2z"/>
		<path class="st0" d="M183.2,432.8c0-1.3-0.1-2.6,0-3.8c0.1-1.7,0.7-3.2,2.4-3.8c0.9-0.4,1.1-1,1-1.9c-0.1-1.4-0.1-2.9,0-4.3
			c0.5-6.1,6.8-9.2,12-6c1.4,0.9,2.4,2.2,2.8,3.7c0.8,2.8,0.8,5.5,0,8.3c-0.7,2.3-2.2,3.9-4.6,4.3c-2.4,0.4-4.8,0.5-7-0.6
			c-0.2-0.1-0.4-0.2-0.6-0.3c-1.6-0.6-2.3-0.2-2.4,1.5c-0.1,1.7,0,3.5-0.1,5.3c0,0.7,0,1.4-0.1,2.1c-0.1,1-0.8,1.3-1.7,1.3
			c-1,0-1.5-0.5-1.5-1.4C183.2,435.6,183.2,434.2,183.2,432.8C183.2,432.8,183.2,432.8,183.2,432.8z M190.1,420.7
			c0,1-0.1,2.1,0.2,3.1c0.5,1.8,1.7,2.6,3.8,2.6c2.1,0,3.4-0.7,4-2.4c0.7-2.1,0.7-4.3,0-6.4c-0.6-1.8-1.5-2.4-3.3-2.5
			c-2.9-0.2-4.4,1.1-4.6,3.9C190,419.6,190.1,420.1,190.1,420.7z"/>
		<path class="st0" d="M200.6,452.9c-0.9,2-1.7,3.6-2.5,5.2c-0.3,0.6-0.6,1.3-1.2,1.7c-1.1,0.7-2.7,0.3-3.5-1
			c-0.7-1.2-1.2-2.4-1.8-3.6c-0.4-0.7-0.5-1.5-1.2-2c-0.5,0.8-0.3,1.5-0.3,2.2c0,3.1,0,6.2,0,9.4c0,0.6,0,1.3-0.1,1.9
			c-0.1,0.7-0.5,1.1-1.3,1.1c-0.8,0-1.2-0.4-1.3-1.1c-0.1-0.5-0.1-0.9-0.1-1.4c0-5,0-9.9,0-14.9c0-1.1-0.1-2.3,1.4-2.7
			c1.3-0.3,2.2,0.2,3,1.7c1,1.9,1.8,3.9,2.8,5.8c0.3,0.6,0.4,1.4,1.2,1.8c0.8-0.5,1-1.4,1.4-2.2c1-2,2-4,3-6
			c0.6-1.1,1.5-1.3,2.6-1.1c1.1,0.2,1.4,1,1.4,2c0,5.4,0,10.9,0,16.3c0,0.9-0.2,1.8-1.4,1.8c-1.2,0-1.4-1-1.4-1.9
			c0-3.4,0-6.9-0.1-10.3C201,454.8,201.2,454,200.6,452.9z"/>
		<path class="st0" d="M17.7,424c0-2.6,0-5.1,0-7.7c0-0.8,0.1-1.6,1.1-1.8c1.3-0.3,2.2,0.2,2.2,1.7c0.1,1.9,0,3.8,0.1,5.7
			c0,0.7,0,1.4,0,2.2c0.1,1.5,0.3,1.8,1.9,1.9c1,0.1,2.1,0.1,3.1,0c1.6-0.1,2-0.4,2-2c0.1-2.2,0-4.5,0-6.7c0-0.4-0.1-0.8-0.1-1.2
			c0-1,0.4-1.7,1.5-1.8c1.1-0.1,1.8,0.4,2,1.6c0.2,1.5,0.2,3,0.1,4.5c0,2.2,0.1,4.3-0.2,6.5c-0.2,1.4-0.9,2.1-2.3,2.3
			c-1.9,0.3-3.8,0.2-5.7,0.3c-2,0.1-2.2,0.2-2.3,2.2c0,0.3,0,0.6-0.1,1c-0.5,4-2.3,5.6-7.2,5.1c-0.9-0.1-1.4-0.6-1.4-1.6
			c0-0.9,0.5-1.3,1.3-1.4c1.2-0.2,2.5,0.1,3.3-1c0.8-1.1,0.6-2.5,0.6-3.7C17.7,428,17.7,426,17.7,424C17.7,424,17.7,424,17.7,424z"
			/>
		<path class="st0" d="M67.5,462c0.3-1.7,0.2-3.1,0.2-4.5c0-2.4,0-4.8,0-7.2c0-0.6,0-1.3,0.3-1.9c0.3-0.6,0.8-0.7,1.4-0.7
			c0.5,0.1,0.9,0.3,1,0.9c0.1,0.3,0.1,0.6,0.1,0.9c0,5.4,0,10.9,0,16.3c0,0.8-0.1,1.7-1.1,1.9c-1,0.2-1.9,0.2-2.6-0.7
			c-0.3-0.4-0.6-1-0.8-1.4c-1.8-3.4-3.6-6.8-5.4-10.2c-0.3-0.6-0.7-1.2-1.1-1.8c-0.9,0.3-0.6,1-0.6,1.5c0,3.3,0,6.6,0,9.8
			c0,0.6,0,1.3-0.1,1.9c-0.1,0.7-0.7,1-1.4,1c-0.6,0-1-0.4-1.2-1c-0.1-0.4-0.1-0.8-0.1-1.2c0-5.2,0-10.4,0-15.6c0-2,1-2.8,2.7-2.3
			c1,0.3,1.3,1.1,1.7,1.9c1.8,3.4,3.6,6.8,5.4,10.2C66.2,460.5,66.4,461.3,67.5,462z"/>
		<path class="st0" d="M440.5,462.1c0-3.1,0-5.9,0-8.7c0-1.3,0-2.6,0-3.8c0-0.9,0.3-1.8,1.4-1.8c1.2,0,1.4,0.9,1.4,1.8
			c0,2.5,0,4.9,0,7.4c0,2.8,0,5.6,0,8.4c0,1,0.1,2.2-1.3,2.5c-1.3,0.3-2.1-0.1-2.9-1.5c-1.8-3.3-3.5-6.6-5.3-10
			c-0.5-0.9-1-1.8-1.5-2.7c-0.9,0.3-0.6,1-0.6,1.5c0,3.4,0,6.7,0,10.1c0,1.9-0.4,2.5-1.4,2.6c-1.1,0.1-1.4-0.5-1.4-2.5
			c0-5.1,0-10.2,0-15.3c0-1,0.1-2,1.3-2.2c1.1-0.2,2.1,0,2.6,1.1c0.2,0.4,0.4,0.7,0.6,1.1c1.8,3.4,3.5,6.8,5.3,10.2
			C439.1,460.7,439.3,461.4,440.5,462.1z"/>
		<path class="st0" d="M292.2,457.4c1,1,1.8,1.8,2.2,3c1,3.3-0.6,6.4-4.1,7.2c-2.1,0.5-4.2,0.8-6.4,0.4c-2.6-0.4-2.8-0.6-2.8-3.1
			c0-4.8,0-9.6,0-14.4c0-0.3,0-0.6,0-1c0-1.2,0.7-1.9,1.9-2c2,0,4-0.1,6,0.1c2.3,0.2,4.4,1.1,5.2,3.6
			C295,453.7,294.3,455.6,292.2,457.4z M287.4,458.7C287.4,458.7,287.4,458.7,287.4,458.7c-0.3,0-0.6,0-1,0
			c-2.1,0.1-2.3,0.3-2.4,2.3c0,0.3,0,0.6,0,1c0,3.9,0.6,4.4,4.5,3.7c0.2,0,0.5-0.1,0.7-0.2c2-0.6,2.7-1.8,2.4-4
			c-0.2-1.7-1.1-2.5-3.1-2.7C288.2,458.7,287.8,458.7,287.4,458.7z M287,456.2C287,456.2,287,456.2,287,456.2c0.7,0,1.4,0,2.1-0.1
			c0.9-0.1,1.7-0.6,2.1-1.4c1.1-1.9,0-4.2-2.2-4.6c-4.3-0.8-5.7,0.4-5.1,4.6c0.1,0.9,0.6,1.5,1.5,1.5
			C286.1,456.2,286.5,456.2,287,456.2z"/>
		<path class="st0" d="M241.7,453.1c-0.5,0.7-0.3,1.5-0.3,2.2c0,3.1,0,6.2,0,9.3c0,0.6,0,1.1,0,1.7c0,0.8-0.3,1.4-1.2,1.5
			c-0.9,0-1.2-0.6-1.3-1.4c0-0.3,0-0.6,0-1c0-5,0-10.1,0-15.1c0-1-0.2-2.2,1.2-2.6c1.1-0.3,2.1,0.1,2.9,1.5c1.7,3.2,3.4,6.5,5.1,9.7
			c0.6,1.1,1.2,2.2,2,3.6c0.5-1.3,0.3-2.1,0.3-3c0-3,0-6.1,0-9.1c0-0.6,0-1.3,0.2-1.9c0.1-0.6,0.6-0.9,1.3-0.9
			c0.6,0,1.1,0.3,1.2,0.9c0.1,0.5,0.2,0.9,0.2,1.4c0,5.1,0,10.2,0,15.3c0,2.1-1.4,3-3.1,2.3c-0.8-0.4-1.1-1.1-1.5-1.8
			c-1.9-3.5-3.7-7.1-5.6-10.6C242.8,454.5,242.5,453.7,241.7,453.1z"/>
		<path class="st0" d="M398.7,413.8c0-3.4,0-6.7,0-10c0-1.6,0.5-2.1,1.7-2.2c0.9,0,1.6,0.3,1.8,1.2c0.2,1,0.3,2.1,0.3,3.1
			c0,6.8,0.2,13.6-0.3,20.3c-0.2,2.3-0.4,2.5-2.6,3c-2.1,0.4-4.3,0.2-6.4,0.2c-2.6,0-5.1,0-7.7,0c-0.7,0-1.5,0-1.9-0.8
			c-0.8-1.2,0-2.6,1.5-2.7c2.7-0.1,5.4,0,8.1,0c1,0,2.1,0,3.1,0c2.1-0.1,2.4-0.3,2.4-2.3C398.7,420.3,398.7,417.1,398.7,413.8
			C398.7,413.8,398.7,413.8,398.7,413.8z"/>
		<path class="st0" d="M214.8,457.7c0-2.5,0-4.9,0-7.4c0-2.2,0.4-2.6,2.5-2.7c2.1-0.1,4.1-0.3,6.2,0.2c4.5,1.1,6,5.1,3.1,8.7
			c-0.6,0.7-0.5,1.1,0.1,1.8c3.1,3.7,1.4,8.4-3.2,9.4c-1.9,0.4-3.9,0.6-5.9,0.3c-2.6-0.4-2.7-0.4-2.7-3.2
			C214.8,462.5,214.8,460.1,214.8,457.7C214.8,457.7,214.8,457.7,214.8,457.7z M217.4,462.2c0,3.6,0.4,3.9,4,3.5
			c0.7-0.1,1.4-0.2,2.1-0.5c1.4-0.6,2-1.9,1.8-3.5c-0.2-1.6-1-2.5-2.4-2.8c-0.6-0.1-1.3-0.1-1.9-0.1
			C217.4,458.6,217.4,458.6,217.4,462.2z M220.5,456.2C220.5,456.2,220.5,456.2,220.5,456.2c0.6,0,1.3,0,1.9-0.1
			c1.9-0.2,2.6-1.1,2.6-3c0-1.9-0.7-2.7-2.6-3c-4.4-0.7-5.3,0.1-5,4.2c0.1,1.5,0.3,1.8,1.9,1.9C219.7,456.2,220.1,456.2,220.5,456.2
			z"/>
		<path class="st0" d="M31.7,457.7c0-2.4,0-4.8,0-7.2c0-2.5,0.4-2.9,3-2.9c1.9,0,3.8-0.2,5.7,0.2c3.7,0.9,5.5,4,4.4,7.6
			c-0.4,1.2-1.1,2.1-2.1,2.8c-1.6,1.1-1.6,1.2-0.6,2.8c0.9,1.6,1.9,3.1,2.8,4.7c0.3,0.5,0.9,1.2,0.2,1.7c-0.7,0.6-1.5,0.5-2.2-0.1
			c-0.5-0.4-0.8-1-1.2-1.5c-1-1.6-2-3.3-3-4.9c-0.5-0.8-1.1-1.3-2.1-1.3c-1.5,0-2,0.3-2.1,1.9c-0.1,1.4,0,2.7,0,4.1
			c0,0.9,0.1,2-1.3,2.1c-1,0.1-1.5-0.6-1.6-2.2C31.7,462.9,31.7,460.3,31.7,457.7C31.7,457.7,31.7,457.7,31.7,457.7z M34.6,453.6
			c0.1,3.3-0.7,3.8,3.9,3.6c0.6,0,1.3-0.2,1.8-0.4c1-0.3,1.5-1.1,1.7-2.1c0.6-2.7-0.6-4.3-3.4-4.5C34.8,449.8,34.6,450,34.6,453.6z"
			/>
		<path class="st0" d="M486.5,457.9c0-2.6,0-5.3,0-7.9c0-1.9,0.4-2.3,2.2-2.4c1.7-0.1,3.5-0.1,5.3,0c4.2,0.4,6.1,2.9,5.6,7.1
			c-0.2,1.6-1.1,2.8-2.4,3.7c-1.4,1-1.4,1-0.5,2.5c1,1.7,2,3.3,2.9,4.9c0.3,0.6,1,1.3,0.2,1.9c-0.7,0.4-1.6,0.3-2.2-0.3
			c-0.4-0.4-0.8-1-1.1-1.5c-0.8-1.4-1.6-2.7-2.5-4.1c-0.3-0.5-0.7-1.1-1.1-1.5c-0.7-0.7-1.6-0.6-2.5-0.4c-0.9,0.2-0.9,1-0.9,1.8
			c0,1.1,0,2.2,0,3.4c0,0.6,0,1.1-0.1,1.7c-0.1,0.8-0.7,1.2-1.5,1.2c-0.8-0.1-1.1-0.6-1.2-1.3c-0.1-2-0.1-4-0.1-6
			C486.4,459.6,486.4,458.8,486.5,457.9C486.4,457.9,486.4,457.9,486.5,457.9z M492.3,450.1c-2.7,0-2.9,0.2-3,3c0,0.1,0,0.2,0,0.2
			c0,3.9,1.1,4.7,4.9,3.6c0.2,0,0.3-0.1,0.5-0.2c1.4-0.6,2.2-1.6,2.2-3.1c0-1.6-0.8-2.8-2.2-3.3
			C493.9,450.1,493.1,450.1,492.3,450.1z"/>
		<path class="st0" d="M311.9,457.8c0,0.6,0,1.1,0,1.7c-0.1,5.9-3.3,9-9.2,8.8c-1,0-2.1-0.2-3.1-0.3c-1.2-0.1-1.7-0.8-1.7-1.9
			c0-5.4,0-10.8,0-16.3c0-1.6,0.5-2,2-2.1c1.7-0.1,3.5-0.2,5.3,0c3.2,0.3,5.2,2.1,6.2,5.1C311.9,454.4,311.9,456.1,311.9,457.8z
			 M308.9,458C308.9,458,308.9,458,308.9,458c0.1-0.9,0.1-1.8,0.1-2.6c-0.2-4-2.5-5.9-6.5-5.3c-1.1,0.1-1.6,0.6-1.6,1.7
			c0,4.2,0,8.3,0,12.5c0,0.7,0.2,1.2,1,1.5c3,1,6.7-1.1,7.1-4.3C309,460.3,308.9,459.1,308.9,458z"/>
		<path class="st0" d="M353.9,447.6c1.5,0,2.4,0.7,2.9,2.4c0.6,2,1.2,4,1.7,6c0.9,3.2,1.8,6.4,2.7,9.7c0.2,0.8,0.8,1.8-0.6,2.2
			c-1.2,0.3-1.8-0.4-2.1-1.5c-0.3-1.1-0.7-2.3-1-3.4c-0.3-1.1-0.9-1.5-2-1.6c-4.6-0.4-4.8-0.3-6.1,4.1c-0.1,0.4-0.2,0.8-0.4,1.1
			c-0.5,1.1-1.3,1.6-2.2,1.3c-1.1-0.4-0.7-1.3-0.5-2c0.9-3.4,1.9-6.8,2.9-10.1c0.5-1.9,1.1-3.8,1.7-5.7
			C351.4,448.2,352.4,447.6,353.9,447.6z M353.8,450.5c-1.2,2.4-2,4.9-2.3,7.4c-0.2,1.4,1.3,1.1,2.2,1c0.9,0,2.6,0.6,2.4-1
			C355.9,455.4,354.9,453,353.8,450.5z"/>
		<path class="st0" d="M176.7,447.6c1.1,0,2,0.5,2.6,1.6c0.3,0.6,0.5,1.2,0.7,1.8c1.3,4.4,2.5,8.7,3.7,13.1c0.1,0.5,0.3,0.9,0.4,1.4
			c0.2,0.8,0.6,1.8-0.5,2.3c-0.9,0.4-1.7-0.2-2.2-1.6c-0.4-1.1-0.7-2.1-0.9-3.2c-0.3-1.1-0.9-1.7-2-1.6c-0.1,0-0.2,0-0.2,0
			c-4.6-0.3-4.6-0.3-6,4.1c-0.2,0.6-0.4,1.2-0.7,1.8c-0.4,0.7-1.1,0.9-1.9,0.6c-0.8-0.3-0.7-0.9-0.6-1.6c0.5-1.8,1-3.5,1.5-5.3
			c1-3.5,2-7.1,3-10.6C174.1,448.4,175.1,447.6,176.7,447.6z M176.6,450.6c-1.2,2.3-1.7,4.6-2.3,6.9c-0.2,0.8,0.1,1.5,1,1.5
			c1.2,0,2.5,0.5,3.6-0.5c0.1-0.1,0.1-0.3,0.1-0.5C178.4,455.5,177.8,452.9,176.6,450.6z"/>
		<path class="st0" d="M132.1,461.2c-0.6,0-1.1,0-1.7,0c-1,0-1.6,0.4-1.9,1.5c-0.3,1-0.6,2-0.9,3c-0.1,0.5-0.3,0.9-0.5,1.3
			c-0.5,0.9-1.2,1-2.1,0.7c-0.8-0.3-0.6-1-0.4-1.6c0.9-3.1,1.7-6.1,2.6-9.2c0.6-2.2,1.2-4.5,1.9-6.7c0.6-1.8,1.5-2.6,3-2.6
			c1.5,0,2.5,0.7,3,2.5c1.5,5.2,3,10.4,4.5,15.7c0.2,0.7,0.6,1.6-0.5,2c-0.9,0.3-1.7-0.1-2.1-1.3c-0.3-0.9-0.5-1.8-0.8-2.8
			c-0.6-2.2-0.8-2.4-3.1-2.4C132.8,461.2,132.5,461.2,132.1,461.2C132.1,461.2,132.1,461.2,132.1,461.2z M132.3,450.2
			c-1.2,2-1.4,3.8-1.9,5.6c-0.9,3.2-0.2,3.9,3.1,3.3c0.9-0.2,1.2-0.7,1-1.5C134,455.2,133.5,452.9,132.3,450.2z"/>
		<path class="st0" d="M270.5,461.2c-0.3,0-0.6,0-1,0c-2.1,0.1-2.3,0.1-2.8,2.1c-0.2,0.8-0.4,1.7-0.7,2.5c-0.1,0.5-0.3,0.9-0.6,1.3
			c-0.5,0.7-1.2,0.8-1.9,0.5c-0.6-0.3-0.6-0.9-0.5-1.4c0.1-0.5,0.2-1.1,0.4-1.6c1.3-4.6,2.6-9.2,3.9-13.8c0.1-0.5,0.3-0.9,0.5-1.4
			c0.6-1.2,1.5-1.9,2.8-1.8c1.2,0,2.1,0.7,2.6,1.8c0.2,0.4,0.3,0.7,0.4,1.1c1.4,4.9,2.8,9.8,4.2,14.7c0.1,0.2,0.1,0.5,0.2,0.7
			c0.1,0.7,0.4,1.5-0.6,1.8c-1,0.3-1.7-0.1-2-1.1c-0.3-1-0.6-2-0.9-3c-0.7-2.3-0.7-2.4-3.1-2.4C271.1,461.2,270.8,461.2,270.5,461.2
			z M270.7,450.1c-1.2,2-1.4,3.7-1.9,5.3c-1,3.6-0.7,4,3,3.6c0.9-0.1,1.3-0.5,1.1-1.4C272.3,455.3,271.8,452.9,270.7,450.1z"/>
		<path class="st0" d="M411,455.9c0-1.9,0-3.8,0-5.8c0-0.6,0.1-1.1,0.2-1.7c0.1-0.5,0.6-0.7,1.1-0.7c0.5,0,1,0.2,1.1,0.7
			c0.1,0.6,0.2,1.3,0.2,1.9c0,3,0,6.1,0,9.1c0,1,0.1,1.9,0.3,2.9c0.5,2.3,2,3.5,4.2,3.4c2.2-0.1,3.7-1.4,3.9-3.8
			c0.2-2.1,0.1-4.3,0.1-6.5c0-2,0-4,0-6c0-1,0.3-1.8,1.5-1.7c1,0,1.3,0.8,1.3,1.7c0,4.2,0.4,8.3-0.1,12.5c-0.6,5.6-6.7,8.2-11.4,4.9
			c-1.6-1.1-2.4-2.8-2.4-4.7C411,460,411.1,458,411,455.9C411.1,455.9,411,455.9,411,455.9z"/>
		<path class="st0" d="M329.2,455.7c0,1.9,0.1,3.8,0,5.7c-0.3,5.6-6.2,8.6-11,5.6c-1.8-1.1-2.8-2.9-2.9-5c-0.2-4.2-0.1-8.4-0.1-12.7
			c0-0.9,0.3-1.6,1.3-1.7c1.2-0.1,1.5,0.8,1.5,1.7c0,3.3,0,6.7,0.1,10c0,1,0,2.1,0.2,3.1c0.4,2.1,1.8,3.1,3.9,3.1c2.1,0,3.5-1.1,4-3
			c0.3-1.2,0.4-2.5,0.4-3.8c0-2.6,0-5.3,0-7.9c0-0.6,0-1.1,0-1.7c0-0.9,0.3-1.6,1.4-1.6c0.9,0,1.2,0.7,1.2,1.5c0,1.4,0,2.9,0,4.3
			C329.2,454.3,329.2,455,329.2,455.7C329.2,455.7,329.2,455.7,329.2,455.7z"/>
		<path class="st0" d="M15.8,458c0-2.6,0-5.3,0-7.9c0-2,0.4-2.4,2.4-2.5c2.1-0.1,4.1-0.3,6.2,0.3c3,0.9,4.5,3,4.4,6
			c-0.2,3.1-1.8,5-4.8,5.7c-1.2,0.2-2.4,0.5-3.6,0.4c-1.3-0.1-1.7,0.5-1.7,1.7c0,1.1,0,2.2,0,3.4c0,0.6-0.1,1.1-0.2,1.7
			c-0.2,0.7-0.7,1.1-1.4,1c-0.8,0-1.2-0.5-1.2-1.2c-0.1-1.8-0.1-3.5-0.1-5.3C15.7,460.2,15.7,459.1,15.8,458
			C15.7,458,15.7,458,15.8,458z M18.7,453.8C18.7,453.8,18.7,453.8,18.7,453.8c0.1,0.8,0,1.6,0.1,2.4c0,0.6,0.3,1.2,0.9,1.3
			c1.8,0.3,3.7,0.3,5.2-0.9c1.6-1.3,1.4-4.8-0.3-5.9c-1.6-0.9-3.4-1-5-0.3c-1.3,0.6-0.6,2.1-0.8,3.2
			C18.6,453.7,18.7,453.8,18.7,453.8z"/>
		<path class="st0" d="M471.5,457.9c0-1.8-0.1-3.7,0-5.5c0.1-2.9,1.7-4.6,4.6-4.8c1.7-0.1,3.5,0,5.3,0c0.8,0,1.5,0.3,1.5,1.2
			c0,0.9-0.7,1.2-1.5,1.2c-1.4,0-2.7,0-4.1,0.1c-2.3,0.1-2.8,0.5-2.9,2.8c0,0.5,0,1,0,1.4c0.1,1.5,0.4,1.8,1.9,1.8
			c1.3,0.1,2.6,0,3.8,0c0.6,0,1.1,0,1.7,0.1c0.6,0.1,1,0.5,1,1.1c0,0.7-0.4,1.1-1,1.1c-1.5,0.1-3,0.1-4.5,0.1
			c-2.7,0-2.8,0.2-2.9,2.9c0,0.2,0,0.3,0,0.5c0,3,0.5,3.5,3.4,3.6c1.2,0.1,2.4,0,3.6,0.1c0.7,0,1.3,0.1,1.4,1
			c0.1,0.8-0.5,1.1-1.2,1.2c-2.4,0.4-4.8,0.4-7.1-0.2c-1.9-0.5-2.9-1.9-3-3.9C471.5,461.9,471.6,459.9,471.5,457.9
			C471.6,457.9,471.6,457.9,471.5,457.9z"/>
		<path class="st0" d="M89.3,457.7c0.1-1.9-0.1-3.9,0.2-5.9c0.5-2.6,1.7-3.9,4.2-4.1c1.8-0.2,3.7-0.1,5.5,0c0.8,0,1.5,0.3,1.5,1.2
			c0,0.9-0.7,1.2-1.5,1.2c-1.4,0-2.7,0-4.1,0.1c-2.2,0.1-2.8,0.7-3,2.9c0,0.2,0,0.5,0,0.7c0,2.3,0.2,2.5,2.4,2.5c1.2,0,2.4,0,3.6,0
			c0.5,0,1,0,1.4,0.1c0.6,0.1,1.1,0.4,1.1,1.1c0,0.8-0.5,1.2-1.2,1.2c-1,0.1-2.1,0.1-3.1,0.1c-0.8,0-1.6,0-2.4,0
			c-1.5,0.1-1.7,0.3-1.8,1.9c-0.3,4.3,0.4,5.1,4.8,5.1c0.9,0,1.8,0,2.6,0.1c0.6,0,1.1,0.3,1.1,1c0,0.6-0.3,0.9-0.8,1
			c-2.7,0.6-5.4,0.6-8-0.4c-1.4-0.6-2-1.8-2.2-3.2C89.1,462.1,89.3,459.9,89.3,457.7z"/>
		<path class="st0" d="M461.5,465.3c0.7-0.6,0.8-1.4,1-2.2c1.2-4.2,2.3-8.5,3.5-12.7c0.2-0.6,0.3-1.2,0.6-1.8c0.4-0.8,1.2-1.1,2-0.7
			c0.8,0.3,0.7,1,0.5,1.6c-1.2,4.2-2.4,8.5-3.6,12.7c-0.3,1.2-0.7,2.5-1.1,3.7c-0.4,1.4-1.3,2.2-2.8,2.2c-1.5,0-2.5-0.6-3-2.2
			c-1.6-5.4-3.1-10.9-4.7-16.4c-0.2-0.6-0.3-1.3,0.5-1.6c0.8-0.3,1.6-0.1,2,0.7c0.2,0.5,0.4,1,0.5,1.6c1.2,4.4,2.4,8.8,3.6,13.2
			C460.8,464,460.8,464.7,461.5,465.3z"/>
		<path class="st0" d="M370.7,467.9c-1.4,0-2.9,0.1-4.3,0c-2.3-0.1-3.1-1.5-2-3.6c0.2-0.5,0.6-0.9,0.9-1.4c2.5-3.6,5-7.2,7.4-10.9
			c1-1.5,0.9-1.8-1-1.9c-1.8,0-3.7,0-5.5,0c-0.8,0-1.7,0-1.8-1.1c-0.1-1.1,0.8-1.3,1.6-1.3c2.9,0,5.8-0.1,8.6,0
			c2.1,0.1,2.8,1.5,1.9,3.3c-0.4,0.9-1,1.6-1.5,2.4c-2.3,3.4-4.6,6.7-6.9,10.1c-1,1.4-0.8,1.7,0.9,1.8c1.8,0.1,3.5,0,5.3,0
			c0.6,0,1.1,0,1.7,0.1c0.7,0.1,1.2,0.5,1.1,1.3c-0.1,0.7-0.5,1-1.1,1C374.2,467.8,372.4,467.8,370.7,467.9
			C370.7,467.8,370.7,467.8,370.7,467.9z"/>
		<path class="st0" d="M394.2,467.9c-1.4,0-2.9,0.1-4.3,0c-2.1-0.1-2.9-1.3-2.1-3.2c0.3-0.7,0.7-1.3,1.1-1.9c2.1-3,4.2-6.1,6.2-9.1
			c0.3-0.5,0.6-0.9,0.9-1.4c0.3-0.5,1-1,0.7-1.7c-0.4-0.8-1.3-0.5-2-0.5c-1.5,0-3,0-4.6,0c-0.6,0-1.1,0-1.7-0.2
			c-0.8-0.3-1-1.4-0.3-1.9c0.3-0.2,0.7-0.4,1.1-0.4c2.9,0,5.8-0.1,8.6,0c2.3,0.1,3.1,1.7,1.8,3.7c-1.3,2.2-2.8,4.2-4.3,6.4
			c-1.4,2-2.8,4.1-4.2,6.2c-0.7,1-0.5,1.4,0.8,1.5c1.5,0.1,3,0,4.6,0c0.7,0,1.4,0,2.2,0c0.8,0.1,1.7,0.2,1.6,1.3
			c0,1-0.8,1.1-1.5,1.1c-0.4,0-0.8,0-1.2,0C396.6,467.9,395.4,467.9,394.2,467.9C394.2,467.9,394.2,467.9,394.2,467.9z"/>
		<path class="st0" d="M118.2,450c-1,0.1-1.9,0-2.9,0.2c-2,0.4-2.6,2.2-1.2,3.8c0.6,0.7,1.3,1.1,2.1,1.6c1.6,1,3.2,1.8,4.6,3
			c1.7,1.4,2.3,3.2,1.9,5.4c-0.5,2.1-1.9,3.3-3.9,3.8c-2.2,0.7-4.4,0.3-6.7,0c-0.7-0.1-1.2-0.5-1.1-1.3c0.1-0.8,0.7-1,1.4-1
			c1.5,0.1,3,0.4,4.5,0c1.2-0.3,2.4-0.5,2.8-1.9c0.4-1.5-0.3-2.7-1.5-3.5c-1.3-0.9-2.7-1.7-4-2.6c-0.9-0.6-1.7-1.1-2.5-1.9
			c-2.4-2.6-1.5-6.4,1.9-7.6c2.4-0.8,4.9-0.5,7.4-0.3c0.7,0.1,1.2,0.5,1.2,1.3c0,0.8-0.7,1-1.4,1C119.9,450.1,119.1,450.1,118.2,450
			C118.2,450.1,118.2,450.1,118.2,450z"/>
		<path class="st0" d="M510.5,450.1c-0.8,0-1.6,0-2.4,0c-1,0-1.9,0.4-2.2,1.5c-0.4,1.2,0,2.2,1,2.9c1.1,0.8,2.3,1.4,3.5,2.1
			c1.2,0.7,2.3,1.4,3.3,2.4c2.9,3.2,1.5,7.8-2.7,8.8c-2.1,0.5-4.1,0.3-6.2,0c-0.8-0.1-1.4-0.4-1.3-1.4c0.1-1,0.9-1,1.6-1
			c0.7,0,1.4,0.2,2.1,0.2c0.9,0.1,1.7-0.1,2.6-0.3c1.2-0.3,2-0.9,2.4-2.1c0.3-1.3-0.3-2.2-1.2-2.9c-1.5-1.1-3.2-2.1-4.8-3.2
			c-2.9-1.9-3.9-3.8-3.2-6.3c0.6-2.2,2.6-3.4,6-3.4c1.4,0,2.7,0,4.1,0.2c0.7,0.1,1.4,0.4,1.3,1.4c-0.1,0.8-0.7,1-1.4,1
			C512.1,450.1,511.3,450.1,510.5,450.1C510.5,450.1,510.5,450.1,510.5,450.1z"/>
		<path class="st0" d="M411.8,415.2c0,3.6,0,7.2,0,10.8c0,0.6,0,1.3-0.1,1.9c-0.1,1-0.7,1.4-1.6,1.4c-0.9,0-1.6-0.4-1.7-1.3
			c-0.1-0.5-0.1-1.1-0.1-1.7c0-7.3,0-14.5,0-21.8c0-0.5,0-1,0.1-1.4c0.1-1,0.7-1.5,1.8-1.5c1.1,0,1.6,0.6,1.6,1.7c0,1.8,0,3.7,0,5.5
			C411.8,410.9,411.8,413.1,411.8,415.2z"/>
		<path class="st0" d="M82.6,415.6c0,3.8,0,7.7,0,11.5c0,0.9,0,1.8-1,2.2c-1.1,0.4-2.1-0.1-2.3-1.3c-0.1-0.6-0.1-1.3-0.1-1.9
			c0-7,0-14.1,0-21.1c0-0.6,0-1.1,0.1-1.7c0.2-1.2,0.8-1.7,1.9-1.7c1.1,0,1.5,0.7,1.5,1.7c0,2.5,0,5,0,7.4
			C82.6,412.4,82.6,414,82.6,415.6C82.6,415.6,82.6,415.6,82.6,415.6z"/>
		<path class="st0" d="M74.3,457.6c0-1.3-0.1-2.6,0-3.8c0.4-3.8,2.9-6.1,6.7-6.2c1.4-0.1,2.7-0.1,4,0.3c0.6,0.2,1.2,0.4,1.2,1.3
			c0,0.9-0.7,1-1.4,1c-1.2,0-2.4,0-3.6,0c-2.2,0.1-3.4,1-4,3.1c-0.7,2.8-0.7,5.7-0.1,8.5c0.6,2.9,2.3,4,5.2,3.8
			c1-0.1,1.9-0.3,2.9-0.1c0.6,0.1,1.1,0.4,1.1,1.1c0,0.7-0.3,1.1-0.9,1.2c-5.2,1.2-10.9,0.3-11.2-7.2
			C74.2,459.6,74.2,458.6,74.3,457.6C74.3,457.6,74.3,457.6,74.3,457.6z"/>
		<path class="st0" d="M547.7,467.8c-0.9,0-1.2-0.6-1.3-1.4c0-1.4-0.1-2.7,0-4.1c0-1.3-0.3-2.4-1-3.6c-1.8-2.9-3-6.2-4.3-9.4
			c-0.2-0.4-0.4-0.9,0.1-1.3c0.5-0.4,1-0.4,1.6-0.2c0.8,0.3,1,1,1.3,1.6c0.9,2.1,1.8,4.3,2.8,6.4c0.2,0.4,0.3,0.8,0.7,0.9
			c0.6,0.1,0.8-0.4,1-0.9c0.9-2,1.8-4.1,2.7-6.2c0.3-0.7,0.5-1.4,1.2-1.8c0.6-0.3,1.2-0.4,1.8,0.1c0.5,0.4,0.3,0.9,0.1,1.3
			c-1.4,3.2-2.5,6.4-4.3,9.3c-0.7,1.2-1,2.3-1,3.6c0,1.4,0,2.7,0,4.1C548.8,467.3,548.4,467.8,547.7,467.8z"/>
		<path class="st0" d="M144.9,458.8c0-2.2,0-4.3,0-6.5c0-1.9-0.3-2.1-2.3-2.2c-0.4,0-0.8,0-1.2,0c-0.9-0.1-2,0.1-2-1.2
			c0-1.4,1.2-1.2,2.1-1.3c0.9,0,1.8,0,2.6,0c2.2,0,4.5,0,6.7,0c0.6,0,1.1,0,1.7,0.1c0.5,0.1,0.8,0.4,0.9,1c0,0.7-0.3,1.1-0.9,1.2
			c-0.8,0.1-1.6,0.1-2.4,0.1c-2.1,0.1-2.3,0.2-2.3,2.4c0,4,0,8,0,12c0,0.6,0,1.3-0.1,1.9c-0.1,0.8-0.4,1.4-1.3,1.4
			c-0.9,0-1.3-0.5-1.4-1.3c-0.1-1-0.1-2.1-0.1-3.1C144.9,461.8,144.9,460.3,144.9,458.8C144.9,458.8,144.9,458.8,144.9,458.8z"/>
		<path class="st0" d="M161.1,458.8c0-2.2,0-4.5,0-6.7c0-1.7-0.3-1.9-2-2c-0.9-0.1-1.8,0-2.6-0.1c-0.6-0.1-1-0.5-1-1.1
			c0-0.7,0.4-1,1-1.1c0.4-0.1,0.8-0.1,1.2-0.1c3.2,0,6.4,0,9.6,0c0.9,0,2.2-0.2,2.2,1.2c0,1.4-1.2,1.3-2.1,1.2
			c-3.6-0.1-3.3,0.5-3.3,3.6c0,3.8,0,7.7,0,11.5c0,1.9-0.4,2.5-1.4,2.6c-1.1,0-1.4-0.5-1.4-2.5C161.1,463.1,161.1,461,161.1,458.8
			C161.1,458.8,161.1,458.8,161.1,458.8z"/>
		<path class="st0" d="M530.2,458.8c0-1.9,0-3.8,0-5.8c0-2.8-0.1-2.9-2.8-2.9c-0.6,0-1.1,0-1.7-0.1c-0.6-0.1-1-0.4-1.1-1.1
			c0-0.7,0.4-1,1-1.2c0.3-0.1,0.6-0.1,0.9-0.1c3.4,0,6.9,0,10.3,0c0.3,0,0.6,0.1,0.9,0.1c0.5,0.1,0.8,0.5,0.9,1
			c0,0.7-0.3,1.1-0.9,1.2c-0.7,0.1-1.4,0.1-2.1,0.1c-2.4,0.1-2.5,0.2-2.5,2.7c0,3.9,0,7.8,0,11.7c0,0.6,0,1.3-0.1,1.9
			c-0.1,0.8-0.4,1.4-1.3,1.4c-0.9,0-1.3-0.5-1.4-1.3c-0.1-1-0.1-1.9-0.1-2.9C530.2,462,530.2,460.4,530.2,458.8z"/>
		<path class="st0" d="M333.3,456.7c0-2.1,0-4.2,0-6.2c0-0.6,0-1.1,0.1-1.7c0.1-0.6,0.5-1,1.1-1c0.8,0,1.2,0.4,1.3,1.1
			c0.1,0.6,0.1,1.3,0.1,1.9c0,3.7,0,7.3,0,11c0,3.1,0.8,3.8,3.8,3.9c1.2,0,2.4,0,3.6,0.1c0.6,0,1.2,0.1,1.3,0.8
			c0.1,0.8-0.4,1.2-1.1,1.2c-2.1,0.2-4.3,0.6-6.4,0.1c-2.5-0.6-3.6-1.8-3.7-4.3C333.3,461.3,333.4,459,333.3,456.7
			C333.3,456.7,333.3,456.7,333.3,456.7z"/>
		<path class="st0" d="M391.5,413.7c0,2.4,0,4.8,0,7.2c0,1.1-0.3,1.9-1.6,1.9c-1,0-1.7-0.3-1.8-1.4c0-0.4-0.1-0.8-0.1-1.2
			c0-4.1,0-8.3,0-12.4c0-0.3,0-0.6,0-1c0.1-1.1,0.5-1.8,1.7-1.8c1.1,0,1.6,0.4,1.7,1.8C391.6,409.1,391.5,411.4,391.5,413.7z"/>
		<path class="st0" d="M380.9,457.6c0-2.3,0-4.6,0-6.9c0-0.6,0-1.1,0.1-1.7c0.1-0.7,0.5-1.2,1.2-1.3c0.8-0.1,1.4,0.4,1.5,1.2
			c0.1,0.4,0.1,0.8,0.1,1.2c0,5.1,0,10.2,0,15.3c0,0.5-0.1,1-0.2,1.4c-0.2,0.7-0.8,1-1.5,0.9c-0.6-0.1-1-0.4-1.1-1.1
			c-0.1-0.6-0.1-1.1-0.1-1.7C380.9,462.6,380.9,460.1,380.9,457.6z"/>
		<path class="st0" d="M231.7,457.6c0-2.4,0-4.8,0-7.2c0-0.6,0-1.1,0.1-1.7c0.1-0.6,0.5-1,1.2-1c0.6,0,1.2,0.2,1.4,0.8
			c0.2,0.5,0.3,1.1,0.3,1.6c0,5,0,10.1,0,15.1c0,0.6-0.1,1.1-0.2,1.7c-0.2,0.7-0.8,1-1.5,0.9c-0.6-0.1-1-0.5-1.1-1.1
			c-0.1-1.2-0.1-2.4-0.1-3.6C231.6,461.3,231.7,459.4,231.7,457.6z"/>
		<path class="st0" d="M447.6,457.7c0-2.3,0-4.6,0-6.9c0-0.6,0-1.3,0.1-1.9c0.1-0.7,0.6-1.1,1.3-1.1c0.8,0,1.2,0.4,1.3,1.1
			c0.1,0.5,0.1,1.1,0.1,1.7c0,4.9,0,9.7,0,14.6c0,0.6,0,1.1-0.1,1.7c-0.1,0.6-0.6,0.9-1.2,1c-0.7,0-1.3-0.3-1.4-1
			c-0.1-0.6-0.1-1.3-0.1-1.9C447.6,462.5,447.6,460.1,447.6,457.7z"/>
		<path class="st0" d="M48.9,457.7c0-2.4,0-4.8,0-7.2c0-0.6,0.1-1.3,0.2-1.9c0.2-0.7,0.8-1,1.5-0.9c0.6,0.1,1,0.4,1.1,1.1
			c0.1,0.5,0.1,1,0.1,1.4c0,5,0,10.1,0,15.1c0,1,0.3,2.2-1.3,2.4c-1.1,0.1-1.6-0.6-1.6-2.4C48.9,462.8,49,460.3,48.9,457.7
			C49,457.7,48.9,457.7,48.9,457.7z"/>
		<path class="st0" d="M521.5,457.7c0,2.5,0,4.9,0,7.4c0,0.6-0.1,1.3-0.2,1.9c-0.1,0.5-0.6,0.7-1.1,0.7c-0.6,0-1.2-0.1-1.3-0.8
			c-0.2-0.5-0.2-1.1-0.2-1.6c0-5,0-10.1,0-15.1c0-1.9,0.4-2.5,1.5-2.5c1,0,1.4,0.6,1.4,2.6C521.5,452.8,521.5,455.3,521.5,457.7z"/>
		<path class="st0" d="M389.3,402.5c-0.1,0-0.7,0-1.2-0.1c-0.9-0.1-1.6-0.5-1.1-1.6c0.3-0.7,0.2-1.4,0.2-2.1
			c0.2-2.2,2.4-3.6,4.6-2.9c0.4,0.1,0.7,0.3,0.7,0.8c0,0.4-0.3,0.5-0.6,0.6c-0.5,0.1-1,0.1-1.4,0.3c-0.8,0.3-1.2,0.8-1.1,1.6
			c0.1,0.7,0.5,1.2,1.2,1.3c0.1,0,0.2,0,0.2,0c0.8,0.2,2.1-0.1,1.9,1.2c-0.2,1.1-1.4,0.7-2.2,0.8C390.2,402.6,390,402.5,389.3,402.5
			z"/>
		<path class="st0" d="M431.7,406.6c0,1.1-0.6,1.7-1.8,1.7c-1.3,0-1.9-0.7-1.8-2c0.1-1.1,0.7-1.8,1.8-1.8
			C431,404.6,431.7,405.4,431.7,406.6z"/>
		<path class="st0" d="M21.1,408c0,1.2-0.6,1.7-1.7,1.7c-1.2,0-1.8-0.6-1.7-2c0.1-1.2,0.6-1.8,1.7-1.8C20.6,406,21.2,406.7,21.1,408
			z"/>
		<path class="st0" d="M544.6,434.3c0,1.3-0.4,1.8-1.6,1.9c-1.3,0.1-1.9-0.5-1.9-1.8c0-1.3,0.5-1.9,1.6-1.9
			C543.9,432.3,544.6,433,544.6,434.3z"/>
		<path class="st0" d="M41.8,408c0,1.2-0.6,1.8-1.7,1.8c-1.2,0-1.8-0.6-1.7-2c0.1-1.2,0.6-1.8,1.7-1.8C41.2,406,41.8,406.7,41.8,408
			z"/>
		<path class="st0" d="M32.2,434.4c0,1.3-0.5,1.8-1.7,1.8c-1.2,0-1.7-0.6-1.7-1.8c0-1.3,0.7-2,1.8-2
			C31.7,432.5,32.2,433.1,32.2,434.4z"/>
		<path class="st0" d="M168,434.3c0,1.3-0.6,1.9-1.8,1.9c-1.1-0.1-1.6-0.6-1.6-1.8c0-1.3,0.7-1.9,1.9-1.9
			C167.5,432.5,168,433.1,168,434.3z"/>
		<path class="st0" d="M434.2,406.4c0-1.2,0.6-1.9,1.7-1.9c1.2,0,1.8,0.7,1.7,2c-0.1,1.2-0.7,1.8-1.8,1.7
			C434.6,408.3,434.1,407.7,434.2,406.4z"/>
		<path class="st0" d="M153.1,410.4c0,1.3-0.5,1.8-1.7,1.8c-1.2,0-1.8-0.7-1.8-2c0-1.2,0.6-1.8,1.7-1.8
			C152.6,408.3,153.1,409,153.1,410.4z"/>
		<path class="st0" d="M107.3,434.2c0-1.2,0.6-1.8,1.7-1.8c1.1,0,1.7,0.7,1.7,1.8c0,1.3-0.6,2-1.9,1.9
			C107.8,436.1,107.3,435.6,107.3,434.2z"/>
		<path class="st0" d="M331.1,434.4c0,1.2-0.6,1.8-1.7,1.7c-1.1,0-1.6-0.7-1.7-1.9c0-1.2,0.7-2,1.9-1.9
			C330.6,432.5,331.1,433.2,331.1,434.4z"/>
		<path class="st0" d="M22.9,434.4c0-1.3,0.4-1.9,1.5-2c1.1-0.1,1.9,0.7,1.9,1.9c0,1.2-0.6,1.8-1.7,1.8
			C23.4,436.2,22.9,435.7,22.9,434.4z"/>
		<path class="st0" d="M333.8,434.4c0-1.3,0.5-1.9,1.5-2c1.1-0.1,1.8,0.7,1.8,1.9c0,1.2-0.6,1.8-1.7,1.8
			C334.3,436.2,333.8,435.6,333.8,434.4z"/>
	</g>
</g>
</svg>
